# xmcd CD database file
#
# Track frame offsets:
#	150
#	13987
#	25867
#	43622
#	55002
#	67330
#	80515
#	97762
#	110885
#	129540
#	147977
#	161200
#
# Disc length: 2348 seconds
#
# Revision: 0
# Processed by: cddbd v1.5.2PL0 Copyright (c) Steve Scherf et al.
# Submitted via: CDex 1.79
#
DISCID=aa092a0c
DTITLE=Tanya Dennis - Apartment #9
DYEAR=2003
DGENRE=Country
TTITLE0=I Can`t Feel A Thing
TTITLE1=Right In The Wrong Direction
TTITLE2=Breakin` In
TTITLE3=Afraid To Love You
TTITLE4=Another Chance At Love
TTITLE5=Apartment #9
TTITLE6=Luxury Liner
TTITLE7=Love`s Not Everything
TTITLE8=Ring Around The Moon
TTITLE9=He Feels Guilty
TTITLE10=98.6 Degrees
TTITLE11=Love Don`t Even Know My Name
EXTD=YEAR: 2003
EXTT0=
EXTT1=
EXTT2=
EXTT3=
EXTT4=
EXTT5=
EXTT6=
EXTT7=
EXTT8=
EXTT9=
EXTT10=
EXTT11=
PLAYORDER=
